<?xml version="1.0"?>
<svg xmlns="http://www.w3.org/2000/svg" height="70px" viewBox="0 -6 415.84602 415" width="70px"><g><path d="m380.367188 209.777344c-.617188-19.382813-16.496094-34.78125-35.886719-34.800782h-54.253907c-.0625-.003906-.125-.03125-.164062-.078124l-15.460938-16.917969v-53.550781c-.023437-19.648438-15.820312-35.636719-35.464843-35.902344-.625-19.382813-16.507813-34.78125-35.902344-34.804688h-54.253906c-.0625.003906-.125-.023437-.164063-.070312l-19.6875-21.539063c-6.808594-7.441406-16.425781-11.683593-26.511718-11.691406h-64.855469c-19.828125.023437-35.894531 16.089844-35.914063 35.917969v189.4375c.019532 19.824218 16.085938 35.890625 35.914063 35.914062h105.328125v105.335938c.027344 19.824218 16.09375 35.890625 35.917968 35.910156h200.929688c19.824219-.023438 35.886719-16.085938 35.910156-35.910156v-121.355469c-.027344-19.652344-15.828125-35.640625-35.480468-35.894531zm-342.605469 37.914062c-12.097657-.011718-21.902344-9.816406-21.914063-21.914062v-189.4375c.011719-12.097656 9.816406-21.902344 21.914063-21.917969h64.855469c6.152343.003906 12.019531 2.59375 16.171874 7.132813l19.691407 21.539062c2.695312 2.945312 6.503906 4.625 10.5 4.625h54.253906c11.667969.015625 21.28125 9.152344 21.886719 20.800781h-126.5c-19.820313.019531-35.890625 16.082031-35.914063 35.90625v121.351563c-.011719 12.09375-9.8125 21.898437-21.90625 21.914062zm105.328125-70.105468v70.109374h-73.871094c4.863281-6.273437 7.496094-13.984374 7.492188-21.917968v-121.347656c.015624-12.097657 9.816406-21.898438 21.914062-21.90625h140.070312c12.09375.011718 21.894532 9.8125 21.90625 21.90625v41.398437c-5.15625-2.71875-10.898437-4.144531-16.730468-4.152344h-64.863282c-19.828124.019531-35.894531 16.082031-35.917968 35.910157zm35.917968 211.351562c-12.097656-.011719-21.902343-9.808594-21.917968-21.90625v-189.445312c.015625-12.097657 9.820312-21.894532 21.917968-21.90625h64.863282c6.148437.003906 12.015625 2.589843 16.171875 7.121093l19.679687 21.539063c2.699219 2.945312 6.507813 4.628906 10.5 4.636718h54.257813c11.660156.007813 21.277343 9.144532 21.886719 20.792969h-126.5c-19.824219.019531-35.886719 16.082031-35.90625 35.90625v121.351563c-.019532 12.097656-9.820313 21.898437-21.917969 21.910156zm222.839844-21.90625c-.015625 12.09375-9.816406 21.894531-21.910156 21.90625h-169.453125c.070313-.085938.132813-.175781.203125-.261719.109375-.148437.214844-.292969.324219-.441406.214843-.289063.425781-.585937.628906-.886719.105469-.148437.210937-.296875.3125-.453125.210937-.320312.417969-.640625.621094-.96875.082031-.132812.164062-.261719.246093-.398437.558594-.925782 1.074219-1.875 1.550782-2.847656l.1875-.410157c.167968-.355469.332031-.710937.488281-1.070312.070313-.171875.144531-.34375.214844-.515625.136719-.335938.273437-.675782.398437-1.019532.066406-.175781.132813-.355468.199219-.53125.132813-.363281.253906-.726562.371094-1.09375.050781-.15625.101562-.308593.152343-.46875.324219-1.042968.597657-2.109374.824219-3.199218.035157-.160156.0625-.328125.09375-.488282.074219-.382812.144531-.765624.203125-1.152343.03125-.199219.058594-.398438.085938-.597657.054687-.359374.097656-.722656.140625-1.085937.023437-.199219.046875-.410156.066406-.613281.035156-.386719.0625-.773438.085937-1.160156.011719-.179688.027344-.359376.035157-.539063.027343-.566406.042969-1.136719.042969-1.710937v-121.351563c.015624-12.09375 9.816406-21.894531 21.90625-21.90625h140.070312c12.09375.011719 21.894531 9.8125 21.910156 21.90625zm0 0" data-original="#000000" class="active-path" data-old_color="#000000" fill="#ff9c34"/><path d="m27.570312 322.285156c-8.742187-8.71875-13.628906-20.574218-13.570312-32.921875 0-1.851562-.742188-3.625-2.054688-4.933593-1.3125-1.304688-3.09375-2.035157-4.945312-2.023438-3.871094.019531-7 3.164062-7 7.035156-.0117188 16.039063 6.351562 31.421875 17.691406 42.761719 11.339844 11.34375 26.726563 17.710937 42.761719 17.699219h40.53125l-18.382813 18.914062c-2.695312 2.773438-2.632812 7.207032.140626 9.898438 2.769531 2.695312 7.203124 2.632812 9.898437-.140625l29.375-30.222657c2.632813-2.710937 2.644531-7.019531.019531-9.738281l-29.375-30.484375c-2.683594-2.78125-7.113281-2.863281-9.898437-.183594-2.785157 2.683594-2.867188 7.117188-.183594 9.898438l17.402344 18.058594h-39.601563c-12.316406.027344-24.128906-4.878906-32.808594-13.617188zm0 0" data-original="#000000" class="active-path" data-old_color="#000000" fill="#ff9c34"/></g> </svg>
